<svg xmlns="http://www.w3.org/2000/svg" id="svg" width="1200" height="627" viewBox="0 0 1200 627" class="centered"><g id="wrapper" transform="scale(1)"><rect width="1200" height="627" class="background" fill="#191919"/><g data-index="0" class="outer-group" transform="translate(600 313.5) scale(2.71) translate(-600 -313.5)"><defs/><g transform="translate(162 68) rotate(45 600 313.5)" class="group"><rect rx="12" ry="12" width="100" height="100" x="600" y="313.5" vector-effect="non-scaling-stroke" class="rect" fill="rgba(215, 62, 198, 255)" fill-opacity="1.0769230769230769" stroke="rgba(215, 62, 198, 255)" stroke-opacity="0" stroke-width="1" opacity="1" transform="matrix(1.8343333005905151 -5.6454973220825195 5.6454973220825195 1.8343333005905151 -2568.285888671875 3462.46142578125)" transform-origin="0, 0" style="mix-blend-mode: normal;"/><rect rx="12" ry="12" width="100" height="100" x="600" y="313.5" vector-effect="non-scaling-stroke" class="rect" fill="rgba(254, 58, 136, 255)" fill-opacity="1.1538461538461537" stroke="rgba(254, 58, 136, 255)" stroke-opacity="0" stroke-width="1" opacity="1" transform="matrix(2.0813791751861572 -4.674853801727295 4.674853801727295 2.0813791751861572 -2386.783935546875 2727.94091796875)" transform-origin="0, 0" style="mix-blend-mode: normal;"/><rect rx="12" ry="12" width="100" height="100" x="600" y="313.5" vector-effect="non-scaling-stroke" class="rect" fill="rgba(253, 117, 117, 255)" fill-opacity="1.2307692307692308" stroke="rgba(253, 117, 117, 255)" stroke-opacity="0" stroke-width="1" opacity="1" transform="matrix(2.2057175636291504 -3.8204147815704346 3.8204147815704346 2.2057175636291504 -2164.98583984375 2114.557861328125)" transform-origin="0, 0" style="mix-blend-mode: normal;"/><rect rx="12" ry="12" width="100" height="100" x="600" y="313.5" vector-effect="non-scaling-stroke" class="rect" fill="rgba(253, 168, 100, 255)" fill-opacity="1.3076923076923077" stroke="rgba(253, 168, 100, 255)" stroke-opacity="0" stroke-width="1" opacity="1" transform="matrix(2.2353246212005615 -3.076660394668579 3.076660394668579 2.2353246212005615 -1919.5556640625 1608.66259765625)" transform-origin="0, 0" style="mix-blend-mode: normal;"/><rect rx="12" ry="12" width="100" height="100" x="600" y="313.5" vector-effect="non-scaling-stroke" class="rect" fill="rgba(252, 226, 81, 255)" fill-opacity="1.3846153846153846" stroke="rgba(252, 226, 81, 255)" stroke-opacity="0" stroke-width="1" opacity="1" transform="matrix(2.193687915802002 -2.4363369941711426 2.4363369941711426 2.193687915802002 -1663.55029296875 1197.0506591796875)" transform-origin="0, 0" style="mix-blend-mode: normal;"/><rect rx="12" ry="12" width="100" height="100" x="600" y="313.5" vector-effect="non-scaling-stroke" class="rect" fill="rgba(252, 248, 74, 255)" fill-opacity="1.4615384615384617" stroke="rgba(252, 248, 74, 255)" stroke-opacity="0" stroke-width="1" opacity="1" transform="matrix(2.100290536880493 -1.8911101818084717 1.8911101818084717 2.100290536880493 -1406.9742431640625 867.225830078125)" transform-origin="0, 0" style="mix-blend-mode: normal;"/><rect rx="12" ry="12" width="100" height="100" x="600" y="313.5" vector-effect="non-scaling-stroke" class="rect" fill="rgba(252, 248, 74, 255)" fill-opacity="1.5384615384615383" stroke="rgba(252, 248, 74, 255)" stroke-opacity="0" stroke-width="1" opacity="1" transform="matrix(1.971086025238037 -1.4320778846740723 1.4320778846740723 1.971086025238037 -1157.279052734375 607.5717163085938)" transform-origin="0, 0" style="mix-blend-mode: normal;"/><rect rx="12" ry="12" width="100" height="100" x="600" y="313.5" vector-effect="non-scaling-stroke" class="rect" fill="rgba(252, 248, 74, 255)" fill-opacity="1.6153846153846154" stroke="rgba(252, 248, 74, 255)" stroke-opacity="0" stroke-width="1" opacity="1" transform="matrix(1.8189491033554077 -1.0501707792282104 1.0501707792282104 1.8189491033554077 -919.8059692382812 407.4583740234375)" transform-origin="0, 0" style="mix-blend-mode: normal;"/><rect rx="12" ry="12" width="100" height="100" x="600" y="313.5" vector-effect="non-scaling-stroke" class="rect" fill="rgba(252, 248, 74, 255)" fill-opacity="1.6923076923076923" stroke="rgba(252, 248, 74, 255)" stroke-opacity="0" stroke-width="1" opacity="1" transform="matrix(1.6541013717651367 -0.7364533543586731 0.7364533543586731 1.6541013717651367 -698.1771240234375 257.2908020019531)" transform-origin="0, 0" style="mix-blend-mode: normal;"/><rect rx="12" ry="12" width="100" height="100" x="600" y="313.5" vector-effect="non-scaling-stroke" class="rect" fill="rgba(252, 248, 74, 255)" fill-opacity="1.7692307692307692" stroke="rgba(252, 248, 74, 255)" stroke-opacity="0" stroke-width="1" opacity="1" transform="matrix(1.4845004081726074 -0.4823434054851532 0.4823434054851532 1.4845004081726074 -494.6326904296875 148.5163116455078)" transform-origin="0, 0" style="mix-blend-mode: normal;"/><rect rx="12" ry="12" width="100" height="100" x="600" y="313.5" vector-effect="non-scaling-stroke" class="rect" fill="rgba(252, 248, 74, 255)" fill-opacity="1.8461538461538463" stroke="rgba(252, 248, 74, 255)" stroke-opacity="0" stroke-width="1" opacity="1" transform="matrix(1.3161954879760742 -0.2797659635543823 0.2797659635543823 1.3161954879760742 -310.32275390625 73.6004409790039)" transform-origin="0, 0" style="mix-blend-mode: normal;"/><rect rx="12" ry="12" width="100" height="100" x="600" y="313.5" vector-effect="non-scaling-stroke" class="rect" fill="rgba(252, 248, 74, 255)" fill-opacity="1.9230769230769231" stroke="rgba(252, 248, 74, 255)" stroke-opacity="0" stroke-width="1" opacity="1" transform="matrix(1.153645396232605 -0.12125301361083984 0.12125301361083984 1.153645396232605 -145.55453491210938 25.979923248291016)" transform-origin="0, 0" style="mix-blend-mode: normal;"/><rect rx="12" ry="12" width="100" height="100" x="600" y="313.5" vector-effect="non-scaling-stroke" class="rect" fill="rgba(252, 248, 74, 255)" fill-opacity="2" stroke="rgba(252, 248, 74, 255)" stroke-opacity="0" stroke-width="1" opacity="1" transform="matrix(1 0 0 1 0 0)" transform-origin="0, 0" style="mix-blend-mode: normal;"/></g></g></g></svg>